<svg width="28" height="28" viewBox="0 0 28 28" fill="none" xmlns="http://www.w3.org/2000/svg">
<g clip-path="url(#clip0_3_1486)">
<circle cx="14" cy="14" r="14" fill="black"/>
<path d="M20.0392 10.0007H17.2076C17.353 9.90571 17.4907 9.7987 17.6194 9.68067C17.8136 9.50063 17.97 9.28085 18.0788 9.03507C18.1877 8.78928 18.2467 8.52278 18.2522 8.25219C18.2606 7.95454 18.2105 7.65822 18.1051 7.3814C17.9996 7.10459 17.8409 6.85309 17.6388 6.64232C17.4367 6.43156 17.1953 6.26595 16.9296 6.15566C16.6638 6.04537 16.3792 5.99271 16.0931 6.00091C15.8331 6.00658 15.5771 6.06798 15.3409 6.18129C15.1048 6.2946 14.8936 6.45737 14.7206 6.65944C14.4027 7.04988 14.1582 7.49909 14 7.98364C13.8421 7.49946 13.5981 7.05049 13.2808 6.66015C13.1077 6.45778 12.8963 6.29477 12.6599 6.18133C12.4235 6.0679 12.1671 6.00647 11.9069 6.00091C11.6207 5.99232 11.3358 6.04467 11.0698 6.15474C10.8037 6.26481 10.5621 6.43028 10.3596 6.64101C10.1572 6.85175 9.99831 7.10329 9.89264 7.38022C9.78696 7.65715 9.73676 7.95363 9.7451 8.25148C9.75055 8.52206 9.80955 8.78857 9.91842 9.03435C10.0273 9.28014 10.1837 9.49992 10.3778 9.67996C10.5065 9.79815 10.6442 9.90517 10.7896 9.99994H7.96079C7.83456 9.99994 7.70956 10.0258 7.59295 10.0761C7.47634 10.1264 7.37039 10.2001 7.28117 10.2931C7.19194 10.386 7.12118 10.4963 7.07294 10.6177C7.0247 10.7391 6.99991 10.8692 7 11.0006V13.2862C7 13.5514 7.10123 13.8057 7.28141 13.9932C7.46159 14.1807 7.70597 14.2861 7.96079 14.2861H8.09804V19.0001C8.09804 19.2653 8.19927 19.5196 8.37945 19.7071C8.55963 19.8947 8.80401 20 9.05883 20H18.9412C19.196 20 19.4404 19.8947 19.6206 19.7071C19.8007 19.5196 19.902 19.2653 19.902 19.0001V14.2861H20.0392C20.294 14.2861 20.5384 14.1807 20.7186 13.9932C20.8988 13.8057 21 13.5514 21 13.2862V11.0006C21 10.7354 20.8988 10.481 20.7186 10.2935C20.5384 10.106 20.294 10.0007 20.0392 10.0007ZM14.5332 9.21499C14.6876 8.34933 14.9649 7.66152 15.3355 7.22583C15.4347 7.11192 15.5553 7.02048 15.6899 6.9572C15.8245 6.89392 15.9702 6.86015 16.1178 6.858H16.1556C16.3263 6.85802 16.4953 6.89369 16.6526 6.96289C16.8098 7.03209 16.9521 7.13343 17.0711 7.26089C17.1901 7.38836 17.2832 7.53937 17.3451 7.70498C17.407 7.87059 17.4363 8.04743 17.4314 8.22505C17.429 8.37891 17.3963 8.53061 17.3351 8.6707C17.274 8.81079 17.1857 8.93626 17.0759 9.03928C16.3402 9.71496 15.0926 9.91708 14.4351 9.97565C14.4523 9.76924 14.4804 9.5064 14.5332 9.21499ZM10.9426 7.24726C11.1822 6.99887 11.5063 6.85897 11.8444 6.858H11.8822C12.03 6.86042 12.1758 6.89453 12.3104 6.95818C12.445 7.02184 12.5655 7.11368 12.6645 7.22797C13.3137 7.99364 13.5079 9.29213 13.5642 9.97637C13.3659 9.95851 13.1133 9.9278 12.8361 9.87423C12.0043 9.71496 11.3434 9.42497 10.9248 9.03857C10.8148 8.9358 10.7264 8.8105 10.6651 8.67051C10.6038 8.53052 10.571 8.37887 10.5686 8.22505C10.5639 8.04418 10.5946 7.86419 10.6589 7.69608C10.7232 7.52797 10.8198 7.37526 10.9426 7.24726ZM7.82353 13.2862V11.0006C7.82353 10.9627 7.83799 10.9264 7.86373 10.8996C7.88947 10.8728 7.92438 10.8577 7.96079 10.8577H13.5882V13.429H7.96079C7.92438 13.429 7.88947 13.4139 7.86373 13.3872C7.83799 13.3604 7.82353 13.324 7.82353 13.2862ZM8.92157 19.0001V14.2861H13.5882V19.1429H9.05883C9.02242 19.1429 8.98751 19.1279 8.96177 19.1011C8.93603 19.0743 8.92157 19.038 8.92157 19.0001ZM19.0784 19.0001C19.0784 19.038 19.064 19.0743 19.0382 19.1011C19.0125 19.1279 18.9776 19.1429 18.9412 19.1429H14.4118V14.2861H19.0784V19.0001ZM20.1765 13.2862C20.1765 13.324 20.162 13.3604 20.1363 13.3872C20.1105 13.4139 20.0756 13.429 20.0392 13.429H14.4118V10.8577H20.0392C20.0756 10.8577 20.1105 10.8728 20.1363 10.8996C20.162 10.9264 20.1765 10.9627 20.1765 11.0006V13.2862Z" fill="white"/>
</g>
<defs>
<clipPath id="clip0_3_1486">
<rect width="28" height="28" fill="white" transform="translate(1.22392e-06 28) rotate(-90)"/>
</clipPath>
</defs>
</svg>
