<svg width="28" height="28" viewBox="0 0 28 28" fill="none" xmlns="http://www.w3.org/2000/svg">
<g clip-path="url(#clip0_2465_8)">
<circle cx="14" cy="14" r="14" fill="#00CABF"/>
<g clip-path="url(#clip1_2465_8)">
<path d="M8.79867 20.4513L10.986 19.722C11.5027 19.55 11.7607 19.464 12.0033 19.3486C12.2898 19.212 12.5605 19.0446 12.8107 18.8493C13.0227 18.684 13.2153 18.4913 13.6 18.1066L19.2807 12.4266L19.8987 11.8086C20.3903 11.317 20.6665 10.6502 20.6665 9.95498C20.6665 9.25972 20.3903 8.59293 19.8987 8.10131C19.407 7.60969 18.7403 7.3335 18.045 7.3335C17.3497 7.3335 16.683 7.60969 16.1913 8.10131L15.5733 8.71931L9.892 14.3993C9.50734 14.7846 9.31467 14.9773 9.14934 15.1893C8.95408 15.4395 8.78664 15.7102 8.65 15.9966C8.53467 16.2393 8.44867 16.498 8.27667 17.014L7.54734 19.2013M19.2807 12.4266C19.2807 12.4266 17.968 12.3493 16.8093 11.1906C15.6507 10.0326 15.574 8.71931 15.574 8.71931M8.79867 20.4513L8.264 20.63C8.13937 20.6718 8.00556 20.678 7.8776 20.6479C7.74963 20.6178 7.6326 20.5526 7.53965 20.4597C7.4467 20.3667 7.38152 20.2497 7.35143 20.1217C7.32135 19.9938 7.32755 19.8599 7.36934 19.7353L7.548 19.2006L8.79867 20.4513Z" stroke="white"/>
</g>
</g>
<defs>
<clipPath id="clip0_2465_8">
<rect width="28" height="28" fill="white" transform="translate(1.22392e-06 28) rotate(-90)"/>
</clipPath>
<clipPath id="clip1_2465_8">
<rect width="16" height="16" fill="white" transform="translate(6 6)"/>
</clipPath>
</defs>
</svg>
