<svg width="32" height="32" viewBox="0 0 32 32" fill="none" xmlns="http://www.w3.org/2000/svg">
<g clip-path="url(#clip0_3_1455)">
<ellipse cx="16" cy="16" rx="16" ry="16" fill="#00CABF"/>
<g clip-path="url(#clip1_3_1455)">
<path d="M22.8267 7L17.8032 7C17.647 6.99989 17.4971 7.06159 17.3863 7.17164L7.34327 17.2122C7.12342 17.4332 7 17.7322 7 18.0438C7 18.3555 7.12342 18.6545 7.34327 18.8755L12.1245 23.6567C12.3455 23.8766 12.6446 24 12.9563 24C13.2681 24 13.5671 23.8766 13.7881 23.6567L23.8284 13.6202C23.9384 13.5094 24.0001 13.3595 24 13.2034L24 8.17692C24.0007 8.02247 23.9709 7.86938 23.9123 7.72649C23.8536 7.5836 23.7673 7.45372 23.6583 7.34433C23.5492 7.23494 23.4196 7.1482 23.2769 7.08911C23.1342 7.03001 22.9812 6.99973 22.8267 7Z" stroke="white" stroke-linecap="round" stroke-linejoin="round"/>
<path d="M20.5 12C20.2033 12 19.9133 11.912 19.6666 11.7472C19.42 11.5824 19.2277 11.3481 19.1142 11.074C19.0007 10.7999 18.9709 10.4983 19.0288 10.2074C19.0867 9.91639 19.2296 9.64912 19.4393 9.43934C19.6491 9.22956 19.9164 9.0867 20.2074 9.02882C20.4983 8.97094 20.7999 9.00065 21.074 9.11418C21.3481 9.22771 21.5824 9.41997 21.7472 9.66665C21.912 9.91332 22 10.2033 22 10.5C22 10.8978 21.842 11.2794 21.5607 11.5607C21.2794 11.842 20.8978 12 20.5 12Z" fill="white"/>
<path d="M15 25L25.8345 14.52C25.8883 14.4674 25.9307 14.405 25.9592 14.3362C25.9876 14.2675 26.0014 14.194 25.9999 14.12L25.9999 9" stroke="white" stroke-linecap="round" stroke-linejoin="round"/>
</g>
</g>
<defs>
<clipPath id="clip0_3_1455">
<rect width="32" height="32" fill="white" transform="translate(1.39876e-06 32) rotate(-90)"/>
</clipPath>
<clipPath id="clip1_3_1455">
<rect width="21" height="21" fill="white" transform="translate(6 6)"/>
</clipPath>
</defs>
</svg>
