<svg width="28" height="28" viewBox="0 0 28 28" fill="none" xmlns="http://www.w3.org/2000/svg">
<g clip-path="url(#clip0_3_1469)">
<circle cx="14" cy="14" r="14" fill="black"/>
<path d="M16.8652 12.7785C16.9539 12.6907 17.0022 12.5747 16.9999 12.4548C16.9976 12.3348 16.9449 12.2204 16.8529 12.1356C16.761 12.0508 16.6368 12.0022 16.5068 12.0001C16.3767 11.998 16.2508 12.0425 16.1556 12.1242L13.1632 14.8832L11.8444 13.6673C11.7492 13.5855 11.6233 13.541 11.4932 13.5431C11.3632 13.5452 11.2391 13.5938 11.1471 13.6786C11.0551 13.7635 11.0024 13.8779 11.0001 13.9978C10.9978 14.1177 11.0461 14.2338 11.1348 14.3216L12.8084 15.8646C12.9025 15.9513 13.0301 16 13.1632 16C13.2962 16 13.4239 15.9513 13.518 15.8646L16.8652 12.7785Z" fill="white"/>
<path d="M13.851 6.05729L19.2135 7.8496C19.442 7.92602 19.6412 8.07505 19.7825 8.27534C19.9238 8.47563 19.9999 8.71688 20 8.96452V12.3307C20 16.4782 17.5489 19.5027 13.8894 20.9271C13.6383 21.0243 13.3617 21.0243 13.1107 20.9271C9.4505 19.5033 7 16.4782 7 12.3307V8.96452C7 8.45665 7.31785 8.00639 7.7865 7.8496L13.149 6.05729C13.3771 5.98091 13.6229 5.98091 13.851 6.05729ZM13.45 7.01274L8.08745 8.80573C8.05481 8.81651 8.02633 8.8377 8.00612 8.86624C7.98592 8.89478 7.97502 8.92919 7.975 8.96452V12.3307C7.975 15.9891 10.107 18.6846 13.4545 19.9864C13.4838 19.9978 13.5162 19.9978 13.5455 19.9864C16.893 18.6846 19.025 15.9897 19.025 12.3307V8.96452C19.0249 8.92922 19.0139 8.89485 18.9938 8.86633C18.9736 8.83781 18.9451 8.8166 18.9126 8.80573L13.5501 7.01274C13.5175 7.00202 13.4825 7.00202 13.45 7.01274Z" fill="white"/>
</g>
<defs>
<clipPath id="clip0_3_1469">
<rect width="28" height="28" fill="white" transform="translate(1.22392e-06 28) rotate(-90)"/>
</clipPath>
</defs>
</svg>
