<svg width="28" height="28" viewBox="0 0 28 28" fill="none" xmlns="http://www.w3.org/2000/svg">
<g clip-path="url(#clip0_3_1476)">
<circle cx="14" cy="14" r="14" fill="black"/>
<path d="M17.5 22C19.4328 22 21 18.6423 21 14.5C21 10.3578 19.4328 7 17.5 7M14 14.5C14 18.6423 12.4328 22 10.5 22C8.56724 22 7 18.6423 7 14.5C7 10.3578 8.56724 7 10.5 7C12.4328 7 14 10.3578 14 14.5Z" stroke="white"/>
<path d="M11 22C12.6567 22 14 18.6423 14 14.5C14 10.3578 12.6567 7 11 7" stroke="white"/>
<path d="M11.1429 7H18M11.1429 22H18M12.2857 14.5C12.2857 16.9855 11.7737 19 11.1429 19C10.512 19 10 16.9855 10 14.5C10 12.0145 10.512 10 11.1429 10C11.7737 10 12.2857 12.0145 12.2857 14.5Z" stroke="white"/>
<path d="M23 9C23 6.79086 21.2091 5 19 5C16.7909 5 15 6.79086 15 9C15 11.2091 16.7909 13 19 13C21.2091 13 23 11.2091 23 9Z" fill="black"/>
<path d="M21.9854 9.6903C21.9932 9.72217 21.9947 9.7553 21.9897 9.78777C21.9848 9.82023 21.9735 9.85136 21.9565 9.87946C21.9395 9.90756 21.9172 9.93203 21.8907 9.95146C21.8643 9.97089 21.8343 9.98496 21.8025 9.99279L21.0335 10.1803L21.2351 10.9337C21.2436 10.9654 21.2458 10.9985 21.2415 11.031C21.2372 11.0636 21.2265 11.095 21.2101 11.1234C21.1937 11.1519 21.1719 11.1768 21.1459 11.1968C21.1198 11.2168 21.0901 11.2314 21.0584 11.2399C21.0374 11.246 21.0157 11.2493 20.9938 11.2499C20.9389 11.2499 20.8856 11.2317 20.842 11.1982C20.7984 11.1647 20.7671 11.1177 20.7529 11.0646L20.512 10.1646L19.2461 9.43311V10.8965L19.9221 11.573C19.9453 11.5963 19.9637 11.6238 19.9763 11.6542C19.9888 11.6845 19.9953 11.717 19.9953 11.7499C19.9953 11.7827 19.9888 11.8153 19.9763 11.8456C19.9637 11.8759 19.9453 11.9035 19.9221 11.9268C19.8989 11.95 19.8714 11.9684 19.8411 11.981C19.8108 11.9935 19.7783 12 19.7455 12C19.7127 12 19.6802 11.9935 19.6499 11.981C19.6196 11.9684 19.592 11.95 19.5688 11.9268L18.9965 11.3533L18.4241 11.9268C18.4009 11.95 18.3733 11.9684 18.343 11.981C18.3127 11.9935 18.2802 12 18.2474 12C18.2146 12 18.1822 11.9935 18.1518 11.981C18.1215 11.9684 18.094 11.95 18.0708 11.9268C18.0476 11.9035 18.0292 11.8759 18.0166 11.8456C18.0041 11.8153 17.9976 11.7827 17.9976 11.7499C17.9976 11.717 18.0041 11.6845 18.0166 11.6542C18.0292 11.6238 18.0476 11.5963 18.0708 11.573L18.7468 10.8965V9.43311L17.4812 10.1646L17.2403 11.0646C17.2261 11.1178 17.1947 11.1648 17.1511 11.1983C17.1075 11.2318 17.054 11.2499 16.9991 11.2499C16.9772 11.2499 16.9553 11.247 16.9341 11.2415C16.9025 11.233 16.8728 11.2183 16.8467 11.1983C16.8207 11.1784 16.7989 11.1534 16.7824 11.125C16.766 11.0966 16.7554 11.0652 16.7511 11.0326C16.7468 11 16.749 10.9669 16.7575 10.9352L16.9591 10.1818L16.1901 9.99436C16.1258 9.97852 16.0704 9.93776 16.0361 9.88103C16.0018 9.8243 15.9914 9.75623 16.0072 9.69187C16.023 9.62747 16.0637 9.57197 16.1204 9.53764C16.1771 9.50331 16.245 9.49291 16.3093 9.50874L17.2284 9.73467L18.4971 9L17.2288 8.26693L16.3096 8.49286C16.2902 8.49769 16.2701 8.50009 16.25 8.50002C16.189 8.50009 16.13 8.47772 16.0843 8.43719C16.0386 8.39666 16.0094 8.3408 16.002 8.2801C15.9947 8.21943 16.0098 8.15814 16.0445 8.10787C16.0792 8.05757 16.1311 8.02178 16.1904 8.00724L16.9594 7.81975L16.7578 7.06478C16.7407 7.00072 16.7497 6.93246 16.7828 6.87503C16.8159 6.8176 16.8705 6.7757 16.9344 6.75854C16.9984 6.74139 17.0666 6.75038 17.124 6.78355C17.1813 6.81673 17.2232 6.87135 17.2403 6.93541L17.4812 7.83537L18.7468 8.56692V7.10353L18.0708 6.427C18.0239 6.38009 17.9976 6.31647 17.9976 6.25013C17.9976 6.21728 18.0041 6.18476 18.0166 6.15441C18.0292 6.12406 18.0476 6.09649 18.0708 6.07326C18.094 6.05004 18.1215 6.03161 18.1518 6.01904C18.1822 6.00647 18.2146 6 18.2474 6C18.3137 6 18.3772 6.02635 18.4241 6.07326L18.9965 6.64668L19.5688 6.07326C19.6157 6.02635 19.6792 6 19.7455 6C19.8117 6 19.8753 6.02635 19.9221 6.07326C19.969 6.12017 19.9953 6.18379 19.9953 6.25013C19.9953 6.31647 19.969 6.38009 19.9221 6.427L19.2461 7.10353V8.56692L20.5116 7.83537L20.7526 6.93541C20.7697 6.87135 20.8116 6.81673 20.8689 6.78355C20.9263 6.75038 20.9945 6.74139 21.0584 6.75854C21.1224 6.7757 21.177 6.8176 21.2101 6.87503C21.2433 6.93246 21.2522 7.00072 21.2351 7.06478L21.0335 7.81818L21.8025 8.00568C21.8634 8.01871 21.9173 8.05411 21.9535 8.10487C21.9897 8.15567 22.0057 8.21817 21.9982 8.28013C21.9907 8.34206 21.9604 8.39899 21.9131 8.43969C21.8659 8.48036 21.8052 8.50189 21.7429 8.50002C21.7228 8.50009 21.7028 8.49769 21.6832 8.49286L20.7641 8.26693L19.4958 9L20.7641 9.7331L21.6832 9.50718C21.7151 9.49934 21.7482 9.49784 21.7806 9.50281C21.813 9.50778 21.8441 9.51908 21.8722 9.53608C21.9003 9.55308 21.9247 9.57544 21.9441 9.60191C21.9635 9.62837 21.9775 9.6584 21.9854 9.6903Z" fill="white"/>
</g>
<defs>
<clipPath id="clip0_3_1476">
<rect width="28" height="28" fill="white" transform="translate(1.22392e-06 28) rotate(-90)"/>
</clipPath>
</defs>
</svg>
