<svg width="28" height="28" viewBox="0 0 28 28" fill="none" xmlns="http://www.w3.org/2000/svg">
<g clip-path="url(#clip0_3_1463)">
<circle cx="14" cy="14" r="14" fill="black"/>
<path d="M20.9286 9.41861H8.68367C8.4807 9.41861 8.28604 9.33898 8.14252 9.19723C7.999 9.05549 7.91837 8.86325 7.91837 8.66279C7.91837 8.46234 7.999 8.27009 8.14252 8.12835C8.28604 7.98661 8.4807 7.90698 8.68367 7.90698H19.0918C19.2136 7.90698 19.3304 7.8592 19.4165 7.77415C19.5026 7.68911 19.551 7.57376 19.551 7.45349C19.551 7.33322 19.5026 7.21787 19.4165 7.13282C19.3304 7.04778 19.2136 7 19.0918 7H8.68367C8.23714 7 7.80889 7.17519 7.49314 7.48702C7.17739 7.79885 7 8.22179 7 8.66279V18.3372C7 18.7782 7.17739 19.2011 7.49314 19.513C7.80889 19.8248 8.23714 20 8.68367 20H20.9286C21.2127 20 21.4853 19.8885 21.6862 19.6901C21.8871 19.4916 22 19.2225 22 18.9419V10.4767C22 10.1961 21.8871 9.92697 21.6862 9.72853C21.4853 9.53009 21.2127 9.41861 20.9286 9.41861ZM21.0816 18.9419C21.0816 18.982 21.0655 19.0204 21.0368 19.0488C21.0081 19.0771 20.9692 19.093 20.9286 19.093H8.68367C8.4807 19.093 8.28604 19.0134 8.14252 18.8717C7.999 18.7299 7.91837 18.5377 7.91837 18.3372V10.1434C8.15515 10.2635 8.41753 10.3259 8.68367 10.3256H20.9286C20.9692 10.3256 21.0081 10.3415 21.0368 10.3699C21.0655 10.3982 21.0816 10.4367 21.0816 10.4767V18.9419ZM18.9388 14.407C18.9388 14.5565 18.8939 14.7026 18.8098 14.8269C18.7257 14.9512 18.6062 15.0481 18.4663 15.1053C18.3265 15.1625 18.1726 15.1774 18.0242 15.1483C17.8757 15.1191 17.7393 15.0471 17.6323 14.9414C17.5253 14.8357 17.4524 14.701 17.4229 14.5544C17.3933 14.4078 17.4085 14.2558 17.4664 14.1177C17.5243 13.9796 17.6224 13.8616 17.7483 13.7785C17.8741 13.6955 18.0221 13.6512 18.1735 13.6512C18.3764 13.6512 18.5711 13.7308 18.7146 13.8725C18.8581 14.0143 18.9388 14.2065 18.9388 14.407Z" fill="white"/>
</g>
<defs>
<clipPath id="clip0_3_1463">
<rect width="28" height="28" fill="white" transform="translate(1.22392e-06 28) rotate(-90)"/>
</clipPath>
</defs>
</svg>
